<?xml version="1.0" encoding="utf-8"?>
<!-- Generator: Adobe Illustrator 26.0.3, SVG Export Plug-In . SVG Version: 6.00 Build 0)  -->
<svg version="1.1" xmlns="http://www.w3.org/2000/svg" xmlns:xlink="http://www.w3.org/1999/xlink" x="0px" y="0px"
	 viewBox="0 0 64 64" style="enable-background:new 0 0 64 64;" xml:space="preserve">
<g id="레이어_1">
	<g>
		<circle style="fill:#2563EB;" cx="32" cy="32" r="32"/>
	</g>
</g>
<g id="레이어_2">
	<g>
		<path style="fill:#FFFFFF;" d="M16.5,39.3h-4.2v-4h5.4l1.9-6.6h-4.2v-4h5.4l1.7-5.7H27l-1.7,5.7h5.8l1.6-5.7h4.7l-1.7,5.7h4.2v4
			h-5.4l-1.9,6.6H37v4h-5.4L30,45.1h-4.6l1.6-5.8h-5.8l-1.7,5.8h-4.7L16.5,39.3z M28.1,35.3l1.9-6.6h-5.8l-1.9,6.6H28.1z"/>
		<path style="fill:#FFFFFF;" d="M47.1,18.9h4.7l-4.4,18.3h-4L47.1,18.9z M42.3,40.2H47l-1.1,4.9h-4.7L42.3,40.2z"/>
	</g>
</g>
</svg>
